<?xml version="1.0" encoding="UTF-8" standalone="no"?>
<!DOCTYPE svg PUBLIC "-//W3C//DTD SVG 1.1//EN"
 "http://www.w3.org/Graphics/SVG/1.1/DTD/svg11.dtd">
<!-- Generated by graphviz version 2.47.0 (20210316.0004)
 -->
<!-- Title: dependencies Pages: 1 -->
<svg width="785pt" height="284pt"
 viewBox="0.00 0.00 785.00 284.00" xmlns="http://www.w3.org/2000/svg" xmlns:xlink="http://www.w3.org/1999/xlink">
<g id="graph0" class="graph" transform="scale(1 1) rotate(0) translate(4 280)">
<title>dependencies</title>
<polygon fill="white" stroke="transparent" points="-4,4 -4,-280 781,-280 781,4 -4,4"/>
<text text-anchor="start" x="367.51" y="-42.4" font-family="Times-12" font-weight="bold" font-size="14.00">Legend</text>
<polygon fill="#ffffb3" stroke="transparent" points="154.5,-10 154.5,-30 174.5,-30 174.5,-10 154.5,-10"/>
<text text-anchor="start" x="178.13" y="-15.4" font-family="Times-12" font-size="14.00"> &#160;Declarations</text>
<polygon fill="#8dd3c7" stroke="transparent" points="267.5,-10 267.5,-30 287.5,-30 287.5,-10 267.5,-10"/>
<text text-anchor="start" x="291.23" y="-15.4" font-family="Times-12" font-size="14.00"> &#160;Module</text>
<polygon fill="#80b1d3" stroke="transparent" points="353.5,-10 353.5,-30 373.5,-30 373.5,-10 353.5,-10"/>
<text text-anchor="start" x="377.28" y="-15.4" font-family="Times-12" font-size="14.00"> &#160;Bootstrap</text>
<polygon fill="#fdb462" stroke="transparent" points="450.5,-10 450.5,-30 470.5,-30 470.5,-10 450.5,-10"/>
<text text-anchor="start" x="474.17" y="-15.4" font-family="Times-12" font-size="14.00"> &#160;Providers</text>
<polygon fill="#fb8072" stroke="transparent" points="546.5,-10 546.5,-30 566.5,-30 566.5,-10 546.5,-10"/>
<text text-anchor="start" x="570.23" y="-15.4" font-family="Times-12" font-size="14.00"> &#160;Exports</text>
<g id="clust1" class="cluster">
<title>cluster_AppModule</title>
<polygon fill="none" stroke="black" stroke-dasharray="1,5" points="8,-70 8,-268 769,-268 769,-70 8,-70"/>
</g>
<g id="clust7" class="cluster">
<title>cluster_AppModule_imports</title>
<polygon fill="none" stroke="black" points="617,-78 617,-130 761,-130 761,-78 617,-78"/>
</g>
<g id="clust9" class="cluster">
<title>cluster_AppModule_bootstrap</title>
<polygon fill="none" stroke="black" points="356,-208 356,-260 480,-260 480,-208 356,-208"/>
</g>
<g id="clust2" class="cluster">
<title>cluster_AppModule_declarations</title>
<polygon fill="none" stroke="black" points="16,-78 16,-130 609,-130 609,-78 16,-78"/>
</g>
<!-- AppComponent -->
<g id="node1" class="node">
<title>AppComponent</title>
<polygon fill="#ffffb3" stroke="black" points="600.94,-122 495.06,-122 495.06,-86 600.94,-86 600.94,-122"/>
<text text-anchor="middle" x="548" y="-99.8" font-family="Times,serif" font-size="14.00">AppComponent</text>
</g>
<!-- AppModule -->
<g id="node5" class="node">
<title>AppModule</title>
<polygon fill="#8dd3c7" stroke="black" points="459.66,-187 456.66,-191 435.66,-191 432.66,-187 376.34,-187 376.34,-151 459.66,-151 459.66,-187"/>
<text text-anchor="middle" x="418" y="-164.8" font-family="Times,serif" font-size="14.00">AppModule</text>
</g>
<!-- AppComponent&#45;&gt;AppModule -->
<g id="edge1" class="edge">
<title>AppComponent&#45;&gt;AppModule</title>
<path fill="none" stroke="black" d="M548,-122.02C548,-139.37 548,-163 548,-163 548,-163 469.85,-163 469.85,-163"/>
<polygon fill="black" stroke="black" points="469.85,-159.5 459.85,-163 469.85,-166.5 469.85,-159.5"/>
</g>
<!-- DialogComponent -->
<g id="node2" class="node">
<title>DialogComponent</title>
<polygon fill="#ffffb3" stroke="black" points="477.94,-122 358.06,-122 358.06,-86 477.94,-86 477.94,-122"/>
<text text-anchor="middle" x="418" y="-99.8" font-family="Times,serif" font-size="14.00">DialogComponent</text>
</g>
<!-- DialogComponent&#45;&gt;AppModule -->
<g id="edge2" class="edge">
<title>DialogComponent&#45;&gt;AppModule</title>
<path fill="none" stroke="black" d="M418,-122.11C418,-122.11 418,-140.99 418,-140.99"/>
<polygon fill="black" stroke="black" points="414.5,-140.99 418,-150.99 421.5,-140.99 414.5,-140.99"/>
</g>
<!-- TemplateListComponent -->
<g id="node3" class="node">
<title>TemplateListComponent</title>
<polygon fill="#ffffb3" stroke="black" points="339.98,-122 184.02,-122 184.02,-86 339.98,-86 339.98,-122"/>
<text text-anchor="middle" x="262" y="-99.8" font-family="Times,serif" font-size="14.00">TemplateListComponent</text>
</g>
<!-- TemplateListComponent&#45;&gt;AppModule -->
<g id="edge3" class="edge">
<title>TemplateListComponent&#45;&gt;AppModule</title>
<path fill="none" stroke="black" d="M262,-122.02C262,-139.37 262,-163 262,-163 262,-163 366.19,-163 366.19,-163"/>
<polygon fill="black" stroke="black" points="366.19,-166.5 376.19,-163 366.19,-159.5 366.19,-166.5"/>
</g>
<!-- TextEditorComponent -->
<g id="node4" class="node">
<title>TextEditorComponent</title>
<polygon fill="#ffffb3" stroke="black" points="165.98,-122 24.02,-122 24.02,-86 165.98,-86 165.98,-122"/>
<text text-anchor="middle" x="95" y="-99.8" font-family="Times,serif" font-size="14.00">TextEditorComponent</text>
</g>
<!-- TextEditorComponent&#45;&gt;AppModule -->
<g id="edge4" class="edge">
<title>TextEditorComponent&#45;&gt;AppModule</title>
<path fill="none" stroke="black" d="M95,-122.28C95,-143.32 95,-175 95,-175 95,-175 366.1,-175 366.1,-175"/>
<polygon fill="black" stroke="black" points="366.1,-178.5 376.1,-175 366.1,-171.5 366.1,-178.5"/>
</g>
<!-- AppComponent  -->
<g id="node7" class="node">
<title>AppComponent </title>
<polygon fill="#80b1d3" stroke="black" points="472.44,-252 363.56,-252 363.56,-216 472.44,-216 472.44,-252"/>
<text text-anchor="middle" x="418" y="-229.8" font-family="Times,serif" font-size="14.00">AppComponent </text>
</g>
<!-- AppModule&#45;&gt;AppComponent  -->
<g id="edge6" class="edge">
<title>AppModule&#45;&gt;AppComponent </title>
<path fill="none" stroke="black" stroke-dasharray="1,5" d="M418,-187.11C418,-187.11 418,-205.99 418,-205.99"/>
<polygon fill="black" stroke="black" points="414.5,-205.99 418,-215.99 421.5,-205.99 414.5,-205.99"/>
</g>
<!-- AppRoutingModule -->
<g id="node6" class="node">
<title>AppRoutingModule</title>
<polygon fill="#8dd3c7" stroke="black" points="753.27,-122 750.27,-126 729.27,-126 726.27,-122 624.73,-122 624.73,-86 753.27,-86 753.27,-122"/>
<text text-anchor="middle" x="689" y="-99.8" font-family="Times,serif" font-size="14.00">AppRoutingModule</text>
</g>
<!-- AppRoutingModule&#45;&gt;AppModule -->
<g id="edge5" class="edge">
<title>AppRoutingModule&#45;&gt;AppModule</title>
<path fill="none" stroke="black" d="M689,-122.28C689,-143.32 689,-175 689,-175 689,-175 469.75,-175 469.75,-175"/>
<polygon fill="black" stroke="black" points="469.75,-171.5 459.75,-175 469.75,-178.5 469.75,-171.5"/>
</g>
</g>
</svg>
