<?xml version="1.0" encoding="UTF-8" standalone="no"?>
<!DOCTYPE svg PUBLIC "-//W3C//DTD SVG 1.1//EN"
 "http://www.w3.org/Graphics/SVG/1.1/DTD/svg11.dtd">
<!-- Generated by graphviz version 2.47.0 (20210316.0004)
 -->
<!-- Title: dependencies Pages: 1 -->
<svg width="785pt" height="284pt"
 viewBox="0.00 0.00 785.00 284.00" xmlns="http://www.w3.org/2000/svg" xmlns:xlink="http://www.w3.org/1999/xlink">
<g id="graph0" class="graph" transform="scale(1 1) rotate(0) translate(4 280)">
<title>dependencies</title>
<polygon fill="white" stroke="transparent" points="-4,4 -4,-280 781,-280 781,4 -4,4"/>
<text text-anchor="start" x="367.51" y="-42.4" font-family="Times-12" font-weight="bold" font-size="14.00">Legend</text>
<polygon fill="#ffffb3" stroke="transparent" points="154.5,-10 154.5,-30 174.5,-30 174.5,-10 154.5,-10"/>
<text text-anchor="start" x="178.13" y="-15.4" font-family="Times-12" font-size="14.00"> &#160;Declarations</text>
<polygon fill="#8dd3c7" stroke="transparent" points="267.5,-10 267.5,-30 287.5,-30 287.5,-10 267.5,-10"/>
<text text-anchor="start" x="291.23" y="-15.4" font-family="Times-12" font-size="14.00"> &#160;Module</text>
<polygon fill="#80b1d3" stroke="transparent" points="353.5,-10 353.5,-30 373.5,-30 373.5,-10 353.5,-10"/>
<text text-anchor="start" x="377.28" y="-15.4" font-family="Times-12" font-size="14.00"> &#160;Bootstrap</text>
<polygon fill="#fdb462" stroke="transparent" points="450.5,-10 450.5,-30 470.5,-30 470.5,-10 450.5,-10"/>
<text text-anchor="start" x="474.17" y="-15.4" font-family="Times-12" font-size="14.00"> &#160;Providers</text>
<polygon fill="#fb8072" stroke="transparent" points="546.5,-10 546.5,-30 566.5,-30 566.5,-10 546.5,-10"/>
<text text-anchor="start" x="570.23" y="-15.4" font-family="Times-12" font-size="14.00"> &#160;Exports</text>
<g id="clust1" class="cluster">
<title>cluster_AppModule</title>
<polygon fill="none" stroke="black" stroke-dasharray="1,5" points="8,-70 8,-268 769,-268 769,-70 8,-70"/>
</g>
<g id="clust2" class="cluster">
<title>cluster_AppModule_declarations</title>
<polygon fill="none" stroke="black" points="168,-78 168,-130 761,-130 761,-78 168,-78"/>
</g>
<g id="clust7" class="cluster">
<title>cluster_AppModule_imports</title>
<polygon fill="none" stroke="black" points="16,-78 16,-130 160,-130 160,-78 16,-78"/>
</g>
<g id="clust9" class="cluster">
<title>cluster_AppModule_bootstrap</title>
<polygon fill="none" stroke="black" points="352,-208 352,-260 476,-260 476,-208 352,-208"/>
</g>
<!-- AppComponent -->
<g id="node1" class="node">
<title>AppComponent</title>
<polygon fill="#ffffb3" stroke="black" points="752.94,-122 647.06,-122 647.06,-86 752.94,-86 752.94,-122"/>
<text text-anchor="middle" x="700" y="-99.8" font-family="Times,serif" font-size="14.00">AppComponent</text>
</g>
<!-- AppModule -->
<g id="node5" class="node">
<title>AppModule</title>
<polygon fill="#8dd3c7" stroke="black" points="455.66,-187 452.66,-191 431.66,-191 428.66,-187 372.34,-187 372.34,-151 455.66,-151 455.66,-187"/>
<text text-anchor="middle" x="414" y="-164.8" font-family="Times,serif" font-size="14.00">AppModule</text>
</g>
<!-- AppComponent&#45;&gt;AppModule -->
<g id="edge1" class="edge">
<title>AppComponent&#45;&gt;AppModule</title>
<path fill="none" stroke="black" d="M700,-122.28C700,-143.32 700,-175 700,-175 700,-175 465.89,-175 465.89,-175"/>
<polygon fill="black" stroke="black" points="465.89,-171.5 455.89,-175 465.89,-178.5 465.89,-171.5"/>
</g>
<!-- DialogComponent -->
<g id="node2" class="node">
<title>DialogComponent</title>
<polygon fill="#ffffb3" stroke="black" points="629.94,-122 510.06,-122 510.06,-86 629.94,-86 629.94,-122"/>
<text text-anchor="middle" x="570" y="-99.8" font-family="Times,serif" font-size="14.00">DialogComponent</text>
</g>
<!-- DialogComponent&#45;&gt;AppModule -->
<g id="edge2" class="edge">
<title>DialogComponent&#45;&gt;AppModule</title>
<path fill="none" stroke="black" d="M570,-122.02C570,-139.37 570,-163 570,-163 570,-163 465.81,-163 465.81,-163"/>
<polygon fill="black" stroke="black" points="465.81,-159.5 455.81,-163 465.81,-166.5 465.81,-159.5"/>
</g>
<!-- TemplateListComponent -->
<g id="node3" class="node">
<title>TemplateListComponent</title>
<polygon fill="#ffffb3" stroke="black" points="491.98,-122 336.02,-122 336.02,-86 491.98,-86 491.98,-122"/>
<text text-anchor="middle" x="414" y="-99.8" font-family="Times,serif" font-size="14.00">TemplateListComponent</text>
</g>
<!-- TemplateListComponent&#45;&gt;AppModule -->
<g id="edge3" class="edge">
<title>TemplateListComponent&#45;&gt;AppModule</title>
<path fill="none" stroke="black" d="M414,-122.11C414,-122.11 414,-140.99 414,-140.99"/>
<polygon fill="black" stroke="black" points="410.5,-140.99 414,-150.99 417.5,-140.99 410.5,-140.99"/>
</g>
<!-- TextEditorComponent -->
<g id="node4" class="node">
<title>TextEditorComponent</title>
<polygon fill="#ffffb3" stroke="black" points="317.98,-122 176.02,-122 176.02,-86 317.98,-86 317.98,-122"/>
<text text-anchor="middle" x="247" y="-99.8" font-family="Times,serif" font-size="14.00">TextEditorComponent</text>
</g>
<!-- TextEditorComponent&#45;&gt;AppModule -->
<g id="edge4" class="edge">
<title>TextEditorComponent&#45;&gt;AppModule</title>
<path fill="none" stroke="black" d="M247,-122.02C247,-139.37 247,-163 247,-163 247,-163 362.29,-163 362.29,-163"/>
<polygon fill="black" stroke="black" points="362.29,-166.5 372.29,-163 362.29,-159.5 362.29,-166.5"/>
</g>
<!-- AppComponent  -->
<g id="node7" class="node">
<title>AppComponent </title>
<polygon fill="#80b1d3" stroke="black" points="468.44,-252 359.56,-252 359.56,-216 468.44,-216 468.44,-252"/>
<text text-anchor="middle" x="414" y="-229.8" font-family="Times,serif" font-size="14.00">AppComponent </text>
</g>
<!-- AppModule&#45;&gt;AppComponent  -->
<g id="edge6" class="edge">
<title>AppModule&#45;&gt;AppComponent </title>
<path fill="none" stroke="black" stroke-dasharray="1,5" d="M414,-187.11C414,-187.11 414,-205.99 414,-205.99"/>
<polygon fill="black" stroke="black" points="410.5,-205.99 414,-215.99 417.5,-205.99 410.5,-205.99"/>
</g>
<!-- AppRoutingModule -->
<g id="node6" class="node">
<title>AppRoutingModule</title>
<polygon fill="#8dd3c7" stroke="black" points="152.27,-122 149.27,-126 128.27,-126 125.27,-122 23.73,-122 23.73,-86 152.27,-86 152.27,-122"/>
<text text-anchor="middle" x="88" y="-99.8" font-family="Times,serif" font-size="14.00">AppRoutingModule</text>
</g>
<!-- AppRoutingModule&#45;&gt;AppModule -->
<g id="edge5" class="edge">
<title>AppRoutingModule&#45;&gt;AppModule</title>
<path fill="none" stroke="black" d="M88,-122.28C88,-143.32 88,-175 88,-175 88,-175 362.05,-175 362.05,-175"/>
<polygon fill="black" stroke="black" points="362.05,-178.5 372.05,-175 362.05,-171.5 362.05,-178.5"/>
</g>
</g>
</svg>
